<?xml version="1.0" encoding="UTF-8"?>
<svg width="11px" height="11px" viewBox="0 0 11 11" version="1.1" xmlns="http://www.w3.org/2000/svg" xmlns:xlink="http://www.w3.org/1999/xlink">
    <!-- Generator: Sketch 46.2 (44496) - http://www.bohemiancoding.com/sketch -->
    <title>add</title>
    <desc>Created with Sketch.</desc>
    <defs></defs>
    <g id="Symbols" stroke="none" stroke-width="1" fill="none" fill-rule="evenodd">
        <g id="Add" transform="translate(-7.000000, -7.000000)" stroke="#DDDDDD">
            <path d="M12.5,17 L13,16.5 L12,16.5 L12.5,17 Z M12.5,8 L12,8.5 L13,8.5 L12.5,8 Z M12.5,17 L13,17.5 L13,12 L12,12 L12,13 L17.5,13 L17,12.5 L17.5,12 Z M8,12.5 L7.5,13 L12,13 L12,17.5 L12.5,17 L13,17.5 L13,12 L12,12 L12,13 Z M11,11 L12,11 L11,12 L11,11 Z" id="Combined-Shape" stroke-width="2"></path>
            <circle id="Oval" cx="12.5" cy="12.5" r="11.5"></circle>
        </g>
    </g>
</svg>