<?xml version="1.0" encoding="UTF-8"?>
<svg width="5px" height="9px" viewBox="0 0 5 9" version="1.1" xmlns="http://www.w3.org/2000/svg" xmlns:xlink="http://www.w3.org/1999/xlink">
    <!-- Generator: Sketch 46.2 (44496) - http://www.bohemiancoding.com/sketch -->
    <title>stop</title>
    <desc>Created with Sketch.</desc>
    <defs></defs>
    <g id="Symbols" stroke="none" stroke-width="1" fill="none" fill-rule="evenodd">
        <g id="Stop" transform="translate(-9.000000, -7.000000)">
            <circle id="Oval" stroke="#DDDDDD" cx="11.5" cy="11.5" r="11"></circle>
            <path d="M11.5,22.9401743 L11.5,23 C17.8512746,23 23,17.8512746 23,11.5 C23,5.14872538 17.8512746,0 11.5,0 L11.5,11.3384199 L3.26606624,19.5723537 C5.53757466,21.8438621 8.52291896,22.966469 11.5,22.9401743 Z" id="Combined-Shape" fill="#FFC200"></path>
            <path d="M9.5,7.5 L10,7.5 L9.5,7 L9.5,7.5 Z M9.5,7.5 L9.5,7 L9,7.5 L9.5,7.5 Z M10,15.5 L9,15.5 L9.5,16 L9.5,15.75 L9.5,16 L10,15.5 Z M9.5,7.5 L9.5,11.5 L9.5,7.5 Z M13.5,7.5 L14,7.5 L13.5,7 L13.5,7.5 Z M13.5,7.5 L13.5,7 L13,7.5 L13.5,7.5 Z M13.5,7.5 L13.5,11.5 L13.5,7.5 Z M13,15.5 L13.5,16 L13.5,15.75 L13.5,16 L14,15.5 L13.5,15.5 L13.5,11.5 L13.5,15.5 Z" id="stop" stroke="#404040"></path>
        </g>
    </g>
</svg>